<?xml version="1.0" standalone="no"?>
<!DOCTYPE svg PUBLIC "-//W3C//DTD SVG 20010904//EN"
 "http://www.w3.org/TR/2001/REC-SVG-20010904/DTD/svg10.dtd">
<svg version="1.0" xmlns="http://www.w3.org/2000/svg"
 width="300.000000pt" height="246.000000pt" viewBox="0 0 300.000000 246.000000"
 preserveAspectRatio="xMidYMid meet">
<metadata>
Created by potrace 1.10, written by Peter Selinger 2001-2011
</metadata>
<g transform="translate(0.000000,246.000000) scale(0.100000,-0.100000)"
fill="#000000" stroke="none">
<path d="M1880 2191 c-125 -35 -213 -89 -330 -201 -41 -39 -103 -96 -137 -127
-70 -61 -55 -62 -165 4 -88 51 -142 66 -253 67 -82 0 -110 -4 -156 -22 -104
-41 -182 -127 -234 -257 -25 -61 -29 -83 -29 -175 -1 -97 1 -109 26 -152 66
-111 189 -160 338 -135 67 11 194 79 285 152 44 36 85 65 91 65 6 0 28 -21 50
-47 21 -26 71 -74 110 -108 216 -183 422 -192 683 -27 30 18 74 52 98 75 48
45 121 152 143 207 7 19 19 49 26 65 23 56 34 123 34 207 0 191 -70 304 -240
386 -69 33 -83 36 -175 39 -73 2 -118 -3 -165 -16z m231 -11 c69 -13 165 -58
212 -100 208 -182 128 -618 -148 -816 -133 -95 -304 -147 -419 -127 -83 14
-163 53 -249 123 -65 52 -170 164 -179 191 -2 5 -24 -8 -48 -31 -75 -70 -158
-128 -238 -167 -73 -36 -80 -38 -176 -38 -85 0 -108 4 -142 22 -124 67 -163
211 -104 389 69 207 262 328 451 284 66 -15 170 -68 224 -114 l40 -34 -45 -39
c-90 -79 -105 -95 -87 -89 20 6 22 -4 5 -24 -7 -8 22 18 64 59 42 41 74 79 72
86 -3 7 32 45 78 86 46 41 96 87 112 102 115 112 252 196 367 227 85 22 134
24 210 10z"/>
<path d="M1840 2127 c-79 -33 -159 -80 -205 -122 l-40 -36 50 34 c82 55 123
78 204 113 85 38 77 46 -9 11z"/>
<path d="M1961 2085 c-83 -19 -170 -60 -254 -123 -69 -50 -317 -270 -317 -280
0 -3 12 6 28 19 252 231 361 309 498 355 129 43 273 26 355 -43 16 -14 32 -23
34 -21 8 8 -82 68 -124 83 -63 22 -149 26 -220 10z"/>
<path d="M1950 1976 c-25 -7 -65 -22 -90 -34 -25 -12 -36 -19 -25 -16 11 3 55
11 98 18 43 6 75 15 70 20 -16 16 142 0 179 -18 54 -26 105 -82 123 -135 23
-68 17 -260 -7 -245 -6 4 -8 -2 -4 -14 5 -14 0 -28 -13 -41 -12 -12 -21 -27
-21 -33 0 -10 3 -9 9 1 7 11 9 11 13 0 10 -28 40 98 45 188 8 126 -6 173 -71
239 -39 40 -64 56 -105 68 -64 19 -138 20 -201 2z"/>
<path d="M1779 1877 c-86 -52 -95 -59 -205 -168 l-104 -102 50 -67 c173 -233
344 -272 493 -111 66 71 98 143 104 240 7 98 -7 140 -58 184 -46 40 -97 57
-171 57 -44 0 -65 -6 -109 -33z m193 0 c52 -17 105 -69 118 -116 12 -44 10
-101 -3 -101 -4 0 -6 -4 -3 -9 9 -14 -32 -121 -61 -160 -34 -45 -56 -63 -113
-98 -107 -65 -227 -15 -347 145 l-57 75 102 98 c161 155 258 200 364 166z"/>
<path d="M970 1855 c-14 -8 -34 -14 -44 -15 -63 -1 -147 -136 -149 -238 -1
-63 20 -114 55 -133 l21 -12 -21 28 c-12 15 -24 43 -28 62 -9 48 14 173 31
173 8 0 16 8 20 19 10 32 65 82 118 107 29 13 45 24 37 24 -8 -1 -26 -7 -40
-15z"/>
<path d="M1617 1794 c-81 -61 -139 -111 -384 -331 -150 -135 -248 -189 -368
-203 l-70 -9 70 3 c116 5 230 62 367 183 65 58 163 133 174 133 4 0 -5 -14
-22 -31 -23 -25 -25 -29 -7 -20 31 16 82 81 76 97 -5 15 59 80 162 162 81 65
101 82 95 82 -3 0 -44 -30 -93 -66z"/>
<path d="M2393 1765 c0 -33 2 -45 4 -27 2 18 2 45 0 60 -2 15 -4 0 -4 -33z"/>
<path d="M692 1726 c-6 -13 -16 -51 -22 -83 -32 -159 61 -285 210 -285 71 0
170 46 227 105 38 39 37 39 -32 -12 -143 -102 -256 -109 -342 -19 -28 29 -60
88 -48 88 3 0 22 -17 43 -38 25 -25 55 -43 82 -50 59 -15 75 -2 19 14 -101 30
-153 129 -130 249 11 57 9 65 -7 31z"/>
<path d="M965 1695 c-134 -47 -168 -242 -44 -247 41 -1 72 17 177 107 90 76
90 78 18 119 -55 32 -102 38 -151 21z m112 -35 c23 -11 45 -25 48 -31 9 -14
-109 -123 -159 -145 -34 -16 -41 -16 -65 -3 -22 13 -26 21 -25 62 0 38 6 53
30 78 31 33 76 57 110 58 11 1 39 -8 61 -19z"/>
<path d="M1310 1624 c-95 -80 -107 -97 -17 -24 68 56 96 81 85 80 -2 -1 -32
-26 -68 -56z"/>
<path d="M1440 1545 c0 -19 48 -86 101 -142 45 -48 156 -123 179 -122 13 0 13
1 0 6 -8 3 -42 25 -75 48 -61 43 -119 106 -170 183 -30 46 -35 50 -35 27z"/>
<path d="M2116 1425 c-26 -49 -106 -136 -166 -178 -24 -17 -24 -17 10 -1 48
23 135 115 166 176 14 27 24 52 22 53 -2 2 -16 -20 -32 -50z"/>
<path d="M1815 1270 l-40 -7 47 -2 c26 0 50 4 53 9 7 11 1 11 -60 0z"/>
<path d="M258 913 c-16 -2 -28 -9 -28 -14 0 -5 -8 -9 -18 -9 -21 0 -82 -51
-82 -68 0 -7 -3 -12 -8 -12 -11 0 -30 -50 -37 -102 -7 -48 18 -158 36 -158 5
0 9 -5 9 -11 0 -16 36 -59 44 -52 3 3 6 1 6 -5 0 -7 6 -12 13 -12 8 0 29 -8
48 -17 44 -23 143 -22 188 0 18 9 37 14 42 12 9 -6 59 56 59 74 0 14 -22 54
-35 63 -16 12 -65 9 -65 -3 0 -6 -7 -8 -15 -5 -9 3 -18 -1 -21 -9 -9 -22 -89
-20 -111 3 -48 48 -63 75 -57 106 5 28 24 62 24 42 0 -4 13 7 29 25 26 28 34
31 67 26 21 -4 42 -13 47 -22 4 -8 12 -13 18 -10 5 4 9 1 9 -4 0 -6 9 -11 20
-11 29 0 70 21 70 37 0 7 5 13 10 13 15 0 12 28 -6 56 -34 51 -160 84 -256 67z
m197 -48 c59 -34 64 -49 29 -86 -27 -29 -28 -29 -48 -10 -33 29 -62 41 -103
41 -141 0 -184 -189 -56 -251 54 -26 100 -21 148 15 l34 26 29 -29 29 -30 -26
-25 c-59 -56 -182 -76 -252 -41 -61 31 -109 85 -125 143 -33 112 20 214 136
267 52 23 147 14 205 -20z"/>
<path d="M2783 864 c-7 -3 -13 -14 -13 -25 0 -11 -16 -35 -35 -53 -43 -42 -47
-84 -10 -128 15 -18 25 -42 25 -61 0 -49 19 -105 43 -129 25 -26 102 -37 136
-18 41 21 20 120 -25 120 -9 0 -14 11 -14 34 0 26 7 39 27 54 23 16 28 28 28
63 0 23 -6 44 -12 46 -24 8 -61 51 -65 74 -2 20 -9 24 -38 26 -19 1 -41 0 -47
-3z m77 -59 c0 -45 0 -45 35 -45 34 0 35 -1 35 -40 0 -39 -1 -40 -35 -40 l-36
0 3 -67 3 -68 33 0 c31 0 32 -1 32 -42 l0 -43 -49 0 c-39 0 -53 5 -75 26 -27
27 -30 42 -27 142 2 52 1 52 -29 52 -28 0 -30 2 -30 39 0 36 3 40 28 43 24 3
27 7 30 46 3 42 3 42 43 42 l39 0 0 -45z"/>
<path d="M726 781 c-4 -6 -15 -11 -24 -11 -20 -1 -65 -38 -80 -66 -17 -34 -23
-91 -13 -134 8 -38 51 -113 59 -105 2 2 19 -3 37 -11 71 -29 172 -9 216 44 31
36 49 119 35 157 -5 11 -12 31 -17 45 -11 29 -58 71 -86 78 -46 11 -121 13
-127 3z m142 -38 c69 -52 90 -132 52 -201 -59 -105 -199 -109 -274 -9 -14 20
-20 43 -20 81 0 62 30 111 86 140 42 21 120 16 156 -11z"/>
<path d="M730 670 c-21 -21 -26 -69 -10 -100 25 -47 101 -41 127 10 38 73 -59
148 -117 90z m64 -15 c-4 -9 0 -15 9 -15 19 0 27 -21 20 -49 -7 -28 -53 -28
-77 1 -18 21 -18 22 3 39 13 10 20 23 16 29 -3 5 3 10 14 10 14 0 19 -5 15
-15z"/>
<path d="M1093 782 c-42 -4 -44 -14 -41 -182 3 -135 3 -135 29 -147 15 -7 40
-10 57 -7 35 7 41 24 46 117 4 67 15 88 43 81 19 -5 21 -14 25 -94 1 -49 6
-92 11 -96 9 -10 95 -10 104 0 5 4 8 65 8 136 l0 128 -32 30 c-35 34 -94 50
-132 35 -14 -5 -39 -7 -56 -4 -16 4 -45 5 -62 3z m201 -24 c49 -22 60 -53 64
-180 l4 -118 -46 0 -46 0 0 105 c0 104 0 106 -26 117 -21 10 -31 9 -52 -3 -26
-14 -27 -18 -30 -117 l-3 -102 -44 0 -45 0 0 150 0 150 46 0 c41 0 46 -2 41
-20 -3 -11 -1 -20 4 -20 5 0 9 4 9 10 0 13 50 39 77 40 12 0 33 -5 47 -12z"/>
<path d="M1519 780 c-12 -3 -25 -14 -28 -25 -11 -38 -7 -283 6 -296 6 -6 30
-12 53 -13 57 -1 70 19 70 110 0 79 11 97 48 83 20 -8 22 -14 22 -93 0 -47 5
-88 10 -91 20 -13 59 -15 84 -5 26 9 26 10 26 125 0 122 -8 152 -50 190 -19
17 -36 20 -120 20 -54 0 -109 -2 -121 -5z m71 -38 l0 -24 31 26 c35 30 67 33
109 11 49 -25 60 -60 60 -185 l0 -110 -40 0 -40 0 0 97 c0 76 -4 100 -17 115
-21 24 -58 23 -83 -2 -17 -17 -20 -33 -20 -115 l0 -95 -40 0 -40 0 0 153 0
152 40 0 c35 0 40 -3 40 -23z"/>
<path d="M2003 772 c-41 -17 -88 -63 -76 -76 3 -3 1 -6 -5 -6 -17 0 -25 -82
-12 -129 20 -74 68 -109 162 -118 45 -5 65 -1 103 17 42 20 46 26 43 51 -3 16
0 29 5 29 6 0 7 3 4 6 -3 4 0 16 8 28 8 11 15 37 15 57 0 51 -42 129 -69 129
-6 0 -11 4 -11 8 0 4 -8 9 -17 10 -84 10 -112 9 -150 -6z m145 -21 c45 -23 82
-84 82 -135 l0 -36 -112 0 -113 -1 28 -24 c32 -29 65 -32 108 -9 28 14 31 14
49 -8 11 -13 19 -26 20 -30 0 -4 -19 -17 -42 -29 -32 -16 -54 -20 -95 -17 -89
8 -145 67 -145 153 0 58 27 104 78 132 48 28 93 29 142 4z"/>
<path d="M2027 672 c-10 -10 -17 -22 -17 -25 0 -4 29 -7 65 -7 68 0 77 6 47
33 -25 22 -75 21 -95 -1z"/>
<path d="M2432 776 c-38 -13 -82 -52 -82 -71 0 -7 -5 -15 -12 -17 -6 -2 -11
-28 -12 -64 -1 -51 4 -69 29 -109 17 -27 33 -48 37 -47 4 1 23 -5 42 -13 91
-38 213 7 203 74 -5 36 -87 83 -87 51 0 -5 -18 -10 -40 -10 -29 0 -40 4 -40
15 0 8 -4 15 -10 15 -16 0 -12 27 5 34 8 3 15 12 15 21 0 22 47 19 62 -4 12
-20 13 -20 49 1 47 26 57 60 30 94 -11 14 -21 24 -23 24 -2 -1 -16 3 -31 9
-36 14 -93 13 -135 -3z m125 -17 c15 -6 38 -20 50 -31 l23 -21 -26 -24 c-29
-27 -37 -28 -54 -8 -18 22 -76 19 -100 -5 -21 -21 -26 -69 -10 -100 17 -31 64
-41 103 -21 34 17 35 17 61 -6 32 -27 28 -36 -24 -63 -108 -55 -231 13 -233
128 -2 112 107 190 210 151z"/>
<path d="M1210 340 c-17 -17 -20 -33 -20 -100 0 -67 3 -83 20 -100 38 -38 140
-17 156 32 6 21 8 20 35 -13 23 -28 31 -32 46 -23 10 6 23 20 28 31 10 20 12
20 43 -13 42 -44 82 -46 124 -4 16 17 34 28 39 24 5 -3 19 -25 30 -50 19 -38
25 -44 53 -44 59 1 81 37 85 135 2 68 -22 95 -84 95 -35 0 -48 -5 -67 -29
l-24 -28 -37 33 c-24 22 -43 32 -58 29 -28 -6 -69 -32 -76 -51 -9 -24 -23 -16
-23 14 0 32 -25 72 -45 72 -8 0 -22 -11 -31 -25 -18 -27 -44 -34 -44 -11 0 44
-113 63 -150 26z m114 -26 c18 -18 21 -50 5 -60 -8 -4 -8 -9 0 -17 16 -16 13
-53 -5 -72 -11 -11 -30 -15 -58 -13 l-41 3 -3 88 -3 87 45 0 c27 0 51 -6 60
-16z m126 -74 c0 -73 -3 -90 -15 -90 -12 0 -15 17 -15 90 0 73 3 90 15 90 12
0 15 -17 15 -90z m168 28 c7 -7 12 -31 12 -55 0 -32 -5 -45 -19 -53 -46 -24
-81 1 -81 59 0 44 14 61 50 61 14 0 31 -5 38 -12z m192 -64 c0 -64 -3 -75 -22
-88 -28 -20 -48 -20 -48 -2 0 8 10 16 22 18 12 2 23 9 26 17 3 9 -2 11 -18 6
-45 -14 -78 54 -50 106 8 14 20 18 50 17 l40 -1 0 -73z"/>
<path d="M1244 280 c-1 -26 2 -30 26 -30 32 0 53 21 44 44 -4 10 -18 16 -38
16 -28 0 -31 -3 -32 -30z"/>
<path d="M1248 200 c3 -23 9 -30 27 -30 27 0 49 24 41 45 -3 9 -18 15 -39 15
-32 0 -33 -2 -29 -30z"/>
<path d="M1554 247 c-3 -9 -4 -28 -2 -44 2 -22 8 -28 28 -28 23 0 25 4 25 40
0 34 -3 40 -23 43 -13 2 -24 -3 -28 -11z"/>
<path d="M1737 254 c-13 -13 -7 -61 8 -74 26 -22 47 -4 43 37 -2 29 -8 39 -23
41 -12 2 -24 0 -28 -4z"/>
</g>
</svg>
