<?xml version="1.0" standalone="no"?>
<!DOCTYPE svg PUBLIC "-//W3C//DTD SVG 20010904//EN"
 "http://www.w3.org/TR/2001/REC-SVG-20010904/DTD/svg10.dtd">
<svg version="1.0" xmlns="http://www.w3.org/2000/svg"
 width="300.000000pt" height="182.000000pt" viewBox="0 0 300.000000 182.000000"
 preserveAspectRatio="xMidYMid meet">
<metadata>
Created by potrace 1.10, written by Peter Selinger 2001-2011
</metadata>
<g transform="translate(0.000000,182.000000) scale(0.100000,-0.100000)"
fill="#000000" stroke="none">
<path d="M2825 1323 c-51 -19 -135 -25 -420 -28 -132 -2 -260 -8 -300 -15 -38
-8 -108 -14 -155 -14 -96 -1 -135 -18 -146 -61 -8 -32 17 -72 54 -87 44 -17
56 -24 60 -36 2 -6 -31 -36 -72 -68 -42 -31 -76 -59 -76 -63 0 -3 -36 -44 -80
-91 -44 -46 -80 -88 -80 -91 0 -4 -7 -15 -16 -23 -14 -15 -19 -13 -50 18 -24
24 -68 48 -142 77 -59 23 -138 56 -177 74 -38 18 -97 41 -130 50 -82 24 -157
60 -185 90 l-23 25 59 0 c101 1 204 18 241 41 44 27 68 78 52 112 -16 35 -43
47 -127 57 -42 5 -90 14 -107 20 -38 15 -278 10 -360 -7 -33 -6 -127 -35 -210
-64 -144 -50 -154 -52 -252 -52 -86 0 -108 4 -138 22 -41 24 -59 28 -30 7 19
-14 19 -15 2 -34 -13 -14 -17 -31 -14 -59 l4 -38 1 41 2 41 53 -9 c28 -6 99
-8 157 -5 86 4 120 11 190 37 198 75 233 82 411 87 146 5 170 3 200 -13 19
-10 66 -20 109 -23 65 -5 75 -9 78 -26 4 -30 -43 -75 -78 -75 -16 0 -33 -7
-38 -16 -17 -30 -262 -32 -262 -2 0 7 18 9 53 6 28 -3 61 -2 72 3 26 10 24 11
-69 14 -78 3 -131 -7 -124 -24 6 -18 154 -132 198 -153 25 -11 77 -31 115 -44
132 -43 420 -165 444 -189 21 -21 23 -28 13 -49 -17 -37 -76 -42 -192 -17 -52
12 -129 29 -170 38 -41 8 -82 20 -90 25 -11 7 -7 8 11 4 15 -3 55 -10 90 -15
35 -5 104 -19 152 -30 111 -27 110 -27 124 9 11 28 2 42 -12 19 -10 -16 -137
-1 -190 22 -30 13 -50 17 -61 11 -11 -6 -27 -4 -47 6 -38 19 -168 23 -174 5
-7 -20 54 -50 177 -89 63 -20 122 -38 130 -41 54 -18 123 -30 174 -31 34 -1
68 -8 81 -16 31 -20 42 -73 21 -94 -9 -9 -16 -11 -16 -5 0 6 -14 14 -31 18
-23 5 -34 3 -44 -12 -12 -15 -11 -19 3 -25 9 -4 33 -7 52 -7 28 -1 41 -8 63
-36 30 -37 47 -45 47 -20 0 14 12 20 34 16 4 -1 15 4 22 10 12 10 18 8 29 -7
9 -11 14 -14 15 -6 0 7 18 41 39 75 42 65 88 107 121 110 23 1 24 6 7 28 -14
18 -36 14 -54 -10 -12 -14 -14 -14 -28 3 -8 11 -18 17 -21 13 -4 -4 -1 -13 6
-22 10 -13 6 -23 -31 -63 -68 -74 -77 -79 -112 -58 -36 20 -47 13 -22 -14 17
-19 17 -22 3 -36 -37 -38 -52 28 -19 81 30 47 62 79 111 111 61 40 110 94 110
121 0 13 9 28 20 35 11 7 20 18 20 25 0 7 8 13 18 13 14 0 15 2 2 10 -8 5 -12
10 -7 11 4 1 10 2 15 3 4 1 28 14 55 30 30 18 47 35 47 47 0 25 -10 24 -66 -6
-39 -21 -50 -23 -63 -12 -14 10 -14 10 -3 -5 10 -12 10 -21 3 -35 -6 -10 -16
-31 -21 -47 -9 -24 -14 -27 -36 -22 -19 5 -24 4 -18 -6 4 -7 -3 -4 -16 7 -23
20 -23 20 -16 0 27 -70 27 -74 -12 -99 -78 -49 -104 -59 -127 -48 -27 12 -40
4 -24 -14 14 -17 4 -44 -16 -44 -29 0 -18 61 20 109 19 24 35 47 35 50 0 4 26
34 58 67 31 33 71 76 87 95 17 19 70 62 119 97 79 57 92 62 134 61 26 -1 70 2
99 6 31 5 63 3 82 -3 18 -6 31 -7 31 -2 0 12 16 6 105 -35 78 -36 169 -55 268
-55 45 0 70 -5 81 -15 19 -20 26 -19 26 3 0 18 -41 42 -73 42 -16 0 -17 3 -7
15 9 10 17 12 30 5 9 -5 20 -6 24 -3 24 24 -34 25 -60 1 -21 -18 -92 -27 -114
-13 -8 5 -37 11 -65 13 -27 2 -51 8 -53 13 -2 5 -19 9 -38 9 -19 0 -34 3 -34
8 0 4 19 26 41 50 46 46 44 56 -3 17 -25 -21 -38 -25 -76 -21 -26 2 -48 9 -50
14 -1 5 -20 6 -44 2 -23 -5 -48 -6 -55 -3 -7 3 -13 0 -13 -7 0 -10 -23 -11
-99 -6 -64 4 -100 3 -103 -3 -2 -7 -9 -7 -18 -1 -19 11 -9 20 32 30 32 8 32 8
-14 11 -27 1 -58 3 -70 3 -24 1 -36 17 -37 49 -1 16 9 17 87 16 62 0 99 4 127
16 34 15 79 18 310 18 358 1 361 0 380 -172 10 -93 49 -128 51 -46 1 37 -1 43
-12 34 -11 -9 -14 -8 -14 3 0 8 5 19 11 25 13 13 1 113 -15 113 -6 0 -21 11
-33 24 -23 24 -77 41 -95 30 -6 -4 -9 -1 -6 7 3 8 19 14 39 15 53 0 141 15
179 30 19 7 44 15 55 17 13 3 9 5 -10 5 -16 0 -48 -6 -70 -15z"/>
<path d="M990 1170 c11 -20 40 -28 40 -10 0 9 -31 30 -45 30 -3 0 -1 -9 5 -20z"/>
<path d="M2466 1110 c-40 -43 -38 -54 4 -17 35 31 54 57 43 57 -5 0 -26 -18
-47 -40z"/>
<path d="M2168 1063 c-10 -2 -18 -11 -18 -19 0 -8 -10 -14 -22 -14 -13 0 -36
-11 -53 -24 l-30 -24 -13 21 c-11 19 -12 14 -10 -41 2 -35 7 -61 13 -60 6 2 9
17 7 35 -2 27 0 31 18 26 11 -3 28 1 38 8 33 27 61 39 77 33 13 -5 15 -2 9 20
-4 16 -2 26 5 26 6 0 11 5 11 10 0 10 -3 11 -32 3z"/>
<path d="M770 907 c0 -19 18 -25 48 -18 37 9 31 26 -10 29 -28 2 -38 -1 -38
-11z"/>
<path d="M280 899 c0 -34 59 -74 74 -50 6 10 -16 61 -26 61 -13 0 -9 -12 9
-32 9 -10 11 -18 5 -18 -6 0 -23 12 -37 27 -17 20 -25 23 -25 12z"/>
<path d="M2727 880 c-3 -8 -8 -33 -11 -55 l-5 -40 15 45 c13 40 14 86 1 50z"/>
<path d="M814 842 c10 -17 75 -34 103 -27 40 10 15 25 -52 32 -41 4 -56 3 -51
-5z"/>
<path d="M0 802 c0 -5 11 -13 24 -16 13 -3 32 -9 43 -12 16 -6 16 -5 3 9 -18
19 -70 33 -70 19z"/>
<path d="M530 770 c0 -18 29 -42 44 -37 7 3 26 -3 41 -13 16 -11 33 -16 37
-14 5 3 16 0 25 -7 9 -8 49 -16 90 -20 51 -4 82 -12 101 -26 15 -11 50 -26 79
-33 29 -8 50 -17 48 -21 -3 -3 -29 -9 -60 -11 -63 -5 -74 -12 -59 -36 11 -18
136 -66 213 -83 25 -5 54 -18 66 -29 12 -11 29 -20 38 -20 12 0 5 11 -22 35
-21 19 -49 35 -61 35 -13 0 -38 11 -56 25 -17 13 -51 29 -74 34 -53 12 -59 18
-26 27 17 4 65 -4 129 -20 56 -15 147 -32 202 -37 55 -5 117 -13 137 -18 33
-7 37 -6 42 15 3 12 13 30 22 38 13 13 13 16 1 16 -8 0 -22 -9 -32 -20 -22
-24 -67 -28 -59 -5 7 18 8 18 -36 5 -45 -13 -103 -3 -96 16 6 16 -12 18 -34 4
-11 -7 -11 -10 -2 -10 7 0 10 -5 7 -10 -6 -9 -53 -4 -65 7 -3 3 4 11 14 19 26
19 14 29 -21 17 -16 -6 -38 -7 -51 -2 -15 6 -22 5 -22 -3 0 -9 -3 -9 -12 0 -7
7 -25 12 -40 12 -18 0 -28 5 -28 15 0 9 -12 20 -27 25 -16 6 -37 15 -48 20
-82 39 -146 62 -184 66 -25 3 -54 10 -64 16 -10 5 -24 7 -32 5 -7 -3 -21 0
-31 7 -27 19 -94 30 -94 16z"/>
<path d="M359 749 c23 -19 82 -39 114 -39 9 0 17 -4 17 -10 0 -17 41 -33 53
-21 8 8 7 11 -2 11 -17 0 -44 28 -37 39 9 13 -42 29 -108 34 -58 4 -59 3 -37
-14z"/>
<path d="M2215 730 c-23 -26 -4 -26 26 0 18 15 20 19 8 20 -9 0 -24 -9 -34
-20z"/>
<path d="M2398 734 c-9 -8 13 -54 24 -54 5 0 6 10 3 23 -9 27 -19 39 -27 31z"/>
<path d="M2158 672 c-16 -9 -28 -20 -28 -24 0 -5 -8 -8 -18 -8 -10 0 -60 -27
-111 -60 -91 -60 -94 -60 -108 -40 -22 31 -35 24 -18 -11 9 -17 15 -32 13 -33
-48 -29 -149 -99 -153 -106 -4 -6 10 -10 33 -10 26 0 45 -7 57 -20 21 -24 52
-26 75 -5 9 8 49 26 88 39 74 25 133 62 210 132 l45 41 -16 49 c-9 27 -14 50
-13 52 8 8 35 -12 44 -34 7 -13 16 -24 22 -24 15 0 -26 57 -50 70 -26 14 -41
12 -72 -8z m22 -26 c0 -8 4 -17 9 -20 5 -4 7 4 3 16 -3 13 -1 19 5 15 6 -4 13
-19 15 -34 3 -16 9 -36 13 -45 5 -14 2 -18 -14 -18 -12 0 -24 -7 -27 -15 -6
-14 -67 -55 -84 -55 -5 0 -12 9 -15 21 -5 15 -10 18 -18 10 -7 -7 -6 -15 3
-26 15 -18 -2 -45 -30 -45 -10 0 -41 -7 -69 -17 -48 -15 -52 -15 -70 1 -11 10
-22 13 -25 8 -3 -5 1 -15 9 -22 21 -17 19 -25 -10 -38 -21 -10 -27 -9 -31 3
-4 8 -4 21 -1 28 9 23 141 125 172 133 17 4 32 10 35 13 9 10 68 41 79 41 6 0
11 -7 11 -15 0 -16 9 -19 34 -9 9 3 14 10 11 15 -3 4 -12 6 -20 2 -10 -3 -15
1 -15 12 0 12 -5 15 -17 10 -10 -4 -24 -10 -32 -13 -9 -3 -12 -1 -7 6 4 7 13
12 19 12 7 0 18 9 25 20 14 23 42 27 42 6z"/>
<path d="M767 633 c-4 -3 -2 -12 4 -20 15 -17 73 -17 88 1 9 11 4 15 -26 20
-48 8 -58 7 -66 -1z"/>
<path d="M475 616 c11 -9 34 -15 50 -15 37 0 17 13 -35 23 -32 6 -33 5 -15 -8z"/>
<path d="M674 592 c11 -10 76 -13 76 -3 0 6 -17 10 -40 9 -22 -1 -38 -3 -36
-6z"/>
<path d="M860 518 c0 -5 8 -23 17 -39 31 -52 171 -94 194 -58 7 11 11 11 21
-2 16 -21 46 -31 53 -19 10 16 -46 44 -82 42 -53 -4 -142 26 -174 58 -16 16
-29 24 -29 18z"/>
<path d="M1393 456 c3 -6 -8 -11 -25 -12 -16 -1 -35 -10 -42 -20 -16 -21 -10
-42 7 -25 6 6 22 11 35 11 13 0 32 4 42 10 23 12 43 -9 38 -42 -3 -21 -7 -23
-55 -20 -43 3 -53 1 -53 -12 0 -18 57 -31 95 -22 14 3 32 20 40 37 15 28 15
33 -1 57 -9 15 -24 31 -33 36 -23 14 -53 15 -48 2z"/>
</g>
</svg>
