<?xml version="1.0" standalone="no"?>
<!DOCTYPE svg PUBLIC "-//W3C//DTD SVG 20010904//EN"
 "http://www.w3.org/TR/2001/REC-SVG-20010904/DTD/svg10.dtd">
<svg version="1.0" xmlns="http://www.w3.org/2000/svg"
 width="87.000000pt" height="74.000000pt" viewBox="0 0 87.000000 74.000000"
 preserveAspectRatio="xMidYMid meet">
<metadata>
Created by potrace 1.10, written by Peter Selinger 2001-2011
</metadata>
<g transform="translate(0.000000,74.000000) scale(0.100000,-0.100000)"
fill="#000000" stroke="none">
<path d="M433 567 c-5 -6 -20 -36 -33 -64 -13 -29 -26 -54 -29 -54 -6 -2 -11
-2 -85 -12 -61 -9 -62 -19 -6 -74 l52 -49 -12 -63 c-17 -93 -12 -98 62 -57
l62 34 62 -34 c68 -37 78 -34 70 21 -3 19 -8 50 -11 68 -5 30 -1 38 45 80 28
26 49 51 45 56 -3 5 -24 12 -48 16 -96 14 -93 13 -121 75 -30 65 -39 76 -53
57z m31 -86 c9 -16 12 -31 9 -35 -4 -3 -1 -6 6 -6 7 0 9 -4 6 -10 -6 -9 7 -14
77 -25 l37 -6 -41 -38 -41 -38 12 -48 c6 -26 10 -49 8 -51 -2 -3 -26 8 -52 23
-33 18 -50 23 -53 15 -2 -7 -8 -10 -13 -6 -5 3 -9 1 -9 -4 0 -10 -50 -35 -57
-29 -2 3 1 26 7 53 l11 49 -39 37 c-44 40 -40 48 27 48 35 0 39 3 61 50 13 28
25 50 26 50 2 0 10 -13 18 -29z"/>
</g>
</svg>
